<?xml version="1.0" encoding="UTF-8" standalone="no"?><svg xmlns="http://www.w3.org/2000/svg" xmlns:xlink="http://www.w3.org/1999/xlink" contentScriptType="application/ecmascript" contentStyleType="text/css" height="385px" preserveAspectRatio="none" style="width:174px;height:385px;" version="1.1" viewBox="0 0 174 385" width="174px" zoomAndPan="magnify"><defs><filter height="300%" id="fmowzackelef2" width="300%" x="-1" y="-1"><feGaussianBlur result="blurOut" stdDeviation="2.0"/><feColorMatrix in="blurOut" result="blurOut2" type="matrix" values="0 0 0 0 0 0 0 0 0 0 0 0 0 0 0 0 0 0 .4 0"/><feOffset dx="4.0" dy="4.0" in="blurOut2" result="blurOut3"/><feBlend in="SourceGraphic" in2="blurOut3" mode="normal"/></filter></defs><g><rect fill="#FEFECE" filter="url(#fmowzackelef2)" height="37.6094" style="stroke: #A80036; stroke-width: 1.5;" width="80" x="43" y="8"/><text fill="#000000" font-family="sans-serif" font-size="12" lengthAdjust="spacingAndGlyphs" textLength="58" x="54" y="21.1387">Schedule</text><line style="stroke: #A80036; stroke-width: 1.5;" x1="44" x2="122" y1="25.9688" y2="25.9688"/><text fill="#000000" font-family="sans-serif" font-size="10" lengthAdjust="spacingAndGlyphs" textLength="68" x="49" y="39.251">ScheduleSlots</text><rect fill="#FEFECE" filter="url(#fmowzackelef2)" height="37.6094" style="stroke: #A80036; stroke-width: 1.5;" width="96" x="35" y="106"/><text fill="#000000" font-family="sans-serif" font-size="12" lengthAdjust="spacingAndGlyphs" textLength="82" x="42" y="119.1387">ScheduleSlot</text><line style="stroke: #A80036; stroke-width: 1.5;" x1="36" x2="130" y1="123.9688" y2="123.9688"/><text fill="#000000" font-family="sans-serif" font-size="10" lengthAdjust="spacingAndGlyphs" textLength="36" x="41" y="137.251">Activity</text><rect fill="#FEFECE" filter="url(#fmowzackelef2)" height="60.8906" style="stroke: #A80036; stroke-width: 1.5;" width="57" x="54.5" y="204"/><text fill="#000000" font-family="sans-serif" font-size="12" lengthAdjust="spacingAndGlyphs" textLength="43" x="61.5" y="217.1387">Activity</text><line style="stroke: #A80036; stroke-width: 1.5;" x1="55.5" x2="110.5" y1="221.9688" y2="221.9688"/><text fill="#000000" font-family="sans-serif" font-size="10" lengthAdjust="spacingAndGlyphs" textLength="23" x="60.5" y="235.251">Type</text><text fill="#000000" font-family="sans-serif" font-size="10" lengthAdjust="spacingAndGlyphs" textLength="35" x="60.5" y="246.8916">Course</text><text fill="#000000" font-family="sans-serif" font-size="10" lengthAdjust="spacingAndGlyphs" textLength="39" x="60.5" y="258.5322">Student</text><rect fill="#FEFECE" filter="url(#fmowzackelef2)" height="49.25" style="stroke: #A80036; stroke-width: 1.5;" width="58" x="6" y="325"/><text fill="#000000" font-family="sans-serif" font-size="12" lengthAdjust="spacingAndGlyphs" textLength="44" x="13" y="338.1387">Course</text><line style="stroke: #A80036; stroke-width: 1.5;" x1="7" x2="63" y1="342.9688" y2="342.9688"/><text fill="#000000" font-family="sans-serif" font-size="10" lengthAdjust="spacingAndGlyphs" textLength="43" x="12" y="356.251">Activities</text><text fill="#000000" font-family="sans-serif" font-size="10" lengthAdjust="spacingAndGlyphs" textLength="44" x="12" y="367.8916">Students</text><rect fill="#FEFECE" filter="url(#fmowzackelef2)" height="49.25" style="stroke: #A80036; stroke-width: 1.5;" width="64" x="99" y="325"/><text fill="#000000" font-family="sans-serif" font-size="12" lengthAdjust="spacingAndGlyphs" textLength="50" x="106" y="338.1387">Student</text><line style="stroke: #A80036; stroke-width: 1.5;" x1="100" x2="162" y1="342.9688" y2="342.9688"/><text fill="#000000" font-family="sans-serif" font-size="10" lengthAdjust="spacingAndGlyphs" textLength="40" x="105" y="356.251">Courses</text><text fill="#000000" font-family="sans-serif" font-size="10" lengthAdjust="spacingAndGlyphs" textLength="43" x="105" y="367.8916">Activities</text><!--MD5=[f5f41843a050c38832d025242c02f852]
reverse link Schedule to ScheduleSlot--><path d="M83,51.06 C83,67.81 83,90.17 83,105.7 " fill="none" id="Schedule&lt;-ScheduleSlot" style="stroke: #A80036; stroke-width: 1.0;"/><polygon fill="#A80036" points="83,46.06,79,55.06,83,51.06,87,55.06,83,46.06" style="stroke: #A80036; stroke-width: 1.0;"/><!--MD5=[fb89c0c8b5ff47ba1c4a51cf4ec84575]
reverse link ScheduleSlot to Activity--><path d="M83,149.43 C83,165.39 83,186.64 83,203.79 " fill="none" id="ScheduleSlot&lt;-Activity" style="stroke: #A80036; stroke-width: 1.0;"/><polygon fill="#A80036" points="83,144.24,79,153.24,83,149.24,87,153.24,83,144.24" style="stroke: #A80036; stroke-width: 1.0;"/><!--MD5=[0439d4a8301dc14766cd3e26135577fb]
link Activity to Course--><path d="M68.31,270.08 C61.56,285.97 53.65,304.6 47.23,319.72 " fill="none" id="Activity-Course" style="stroke: #A80036; stroke-width: 1.0;"/><polygon fill="#A80036" points="45.11,324.7,52.3067,317.9764,47.0624,320.0969,44.9418,314.8526,45.11,324.7" style="stroke: #A80036; stroke-width: 1.0;"/><polygon fill="#A80036" points="70.39,265.19,63.1858,271.9056,68.4325,269.7909,70.5472,275.0376,70.39,265.19" style="stroke: #A80036; stroke-width: 1.0;"/><!--MD5=[e2c9118b5b072af52559f7b5d499988b]
link Activity to Student--><path d="M97.69,270.08 C104.44,285.97 112.35,304.6 118.77,319.72 " fill="none" id="Activity-Student" style="stroke: #A80036; stroke-width: 1.0;"/><polygon fill="#A80036" points="120.89,324.7,121.0582,314.8526,118.9376,320.0969,113.6933,317.9764,120.89,324.7" style="stroke: #A80036; stroke-width: 1.0;"/><polygon fill="#A80036" points="95.61,265.19,95.4528,275.0376,97.5675,269.7909,102.8142,271.9056,95.61,265.19" style="stroke: #A80036; stroke-width: 1.0;"/><!--MD5=[74c98ce6e0011ec5da56b67bbaccc8a0]
link Course to Student--><path d="M69.4,349.5 C77.55,349.5 85.7,349.5 93.85,349.5 " fill="none" id="Course-Student" style="stroke: #A80036; stroke-width: 1.0;"/><polygon fill="#A80036" points="98.93,349.5,89.93,345.5,93.93,349.5,89.93,353.5,98.93,349.5" style="stroke: #A80036; stroke-width: 1.0;"/><polygon fill="#A80036" points="64.25,349.5,73.25,353.5,69.25,349.5,73.25,345.5,64.25,349.5" style="stroke: #A80036; stroke-width: 1.0;"/><!--MD5=[03f63bd9bdf9e290c68d3cfff9595056]
@startuml FirstDiagram

object Schedule
Schedule : ScheduleSlots

object ScheduleSlot
ScheduleSlot : Activity

object Activity
Activity : Type
Activity : Course
Activity : Student

object Course
Course : Activities
Course : Students

object Student
Student : Courses
Student : Activities

ScheduleSlot -up-> Schedule
Activity -up-> ScheduleSlot
Activity <-down-> Course
Activity <-down-> Student
Course <-right-> Student


@enduml

PlantUML version 1.2020.02(Sun Mar 01 11:22:07 CET 2020)
(GPL source distribution)
Java Runtime: OpenJDK Runtime Environment
JVM: OpenJDK 64-Bit Server VM
Java Version: 11.0.19+7-post-Ubuntu-0ubuntu122.04.1
Operating System: Linux
Default Encoding: UTF-8
Language: en
Country: null
--></g></svg>