<?xml version="1.0" encoding="UTF-8" standalone="no"?><svg xmlns="http://www.w3.org/2000/svg" xmlns:xlink="http://www.w3.org/1999/xlink" contentScriptType="application/ecmascript" contentStyleType="text/css" height="908px" preserveAspectRatio="none" style="width:587px;height:908px;" version="1.1" viewBox="0 0 587 908" width="587px" zoomAndPan="magnify"><defs><filter height="300%" id="f3mcgvavyeu48" width="300%" x="-1" y="-1"><feGaussianBlur result="blurOut" stdDeviation="2.0"/><feColorMatrix in="blurOut" result="blurOut2" type="matrix" values="0 0 0 0 0 0 0 0 0 0 0 0 0 0 0 0 0 0 .4 0"/><feOffset dx="4.0" dy="4.0" in="blurOut2" result="blurOut3"/><feBlend in="SourceGraphic" in2="blurOut3" mode="normal"/></filter></defs><g><!--MD5=[c680266cf9e454ca06c2d1bb8b683e6b]
class Schedule--><rect fill="#FEFECE" filter="url(#f3mcgvavyeu48)" height="112.0234" id="Schedule" style="stroke: #A80036; stroke-width: 1.5;" width="405" x="90.5" y="8"/><ellipse cx="259.75" cy="24" fill="#ADD1B2" rx="11" ry="11" style="stroke: #A80036; stroke-width: 1.0;"/><path d="M262.7188,29.6406 Q262.1406,29.9375 261.5,30.0781 Q260.8594,30.2344 260.1563,30.2344 Q257.6563,30.2344 256.3281,28.5938 Q255.0156,26.9375 255.0156,23.8125 Q255.0156,20.6875 256.3281,19.0313 Q257.6563,17.375 260.1563,17.375 Q260.8594,17.375 261.5,17.5313 Q262.1563,17.6875 262.7188,17.9844 L262.7188,20.7031 Q262.0938,20.125 261.5,19.8594 Q260.9063,19.5781 260.2813,19.5781 Q258.9375,19.5781 258.25,20.6563 Q257.5625,21.7188 257.5625,23.8125 Q257.5625,25.9063 258.25,26.9844 Q258.9375,28.0469 260.2813,28.0469 Q260.9063,28.0469 261.5,27.7813 Q262.0938,27.5 262.7188,26.9219 L262.7188,29.6406 Z "/><text fill="#000000" font-family="sans-serif" font-size="12" lengthAdjust="spacingAndGlyphs" textLength="58" x="280.25" y="28.1543">Schedule</text><line style="stroke: #A80036; stroke-width: 1.5;" x1="91.5" x2="494.5" y1="40" y2="40"/><text fill="#000000" font-family="sans-serif" font-size="11" lengthAdjust="spacingAndGlyphs" textLength="108" x="96.5" y="54.2104">days: dict[str: Day]</text><line style="stroke: #A80036; stroke-width: 1.5;" x1="91.5" x2="494.5" y1="60.8047" y2="60.8047"/><rect fill="#F24D5C" height="6" style="stroke: #C82930; stroke-width: 1.0;" width="6" x="98.5" y="68.8047"/><text fill="#000000" font-family="sans-serif" font-size="11" lengthAdjust="spacingAndGlyphs" textLength="176" x="110.5" y="75.0151">init_schedule() -&gt; dict[str: Day]</text><text fill="#000000" font-family="sans-serif" font-size="11" lengthAdjust="spacingAndGlyphs" textLength="217" x="110.5" y="87.8198">day_schedule(day) -&gt; list[slots] in day</text><text fill="#000000" font-family="sans-serif" font-size="11" lengthAdjust="spacingAndGlyphs" textLength="379" x="110.5" y="100.6245">insert_activity(Day, Slot, Activity) -&gt; bool. Modifies activity in place.</text><text fill="#000000" font-family="sans-serif" font-size="11" lengthAdjust="spacingAndGlyphs" textLength="321" x="110.5" y="113.4292">as_list_of_dicts() -&gt; dict representation of the Schedule.</text><!--MD5=[cff4d1dfabf1e80e04b31c5c669534b5]
class Day--><rect fill="#FEFECE" filter="url(#f3mcgvavyeu48)" height="86.4141" id="Day" style="stroke: #A80036; stroke-width: 1.5;" width="312" x="137" y="180"/><ellipse cx="277.25" cy="196" fill="#ADD1B2" rx="11" ry="11" style="stroke: #A80036; stroke-width: 1.0;"/><path d="M280.2188,201.6406 Q279.6406,201.9375 279,202.0781 Q278.3594,202.2344 277.6563,202.2344 Q275.1563,202.2344 273.8281,200.5938 Q272.5156,198.9375 272.5156,195.8125 Q272.5156,192.6875 273.8281,191.0313 Q275.1563,189.375 277.6563,189.375 Q278.3594,189.375 279,189.5313 Q279.6563,189.6875 280.2188,189.9844 L280.2188,192.7031 Q279.5938,192.125 279,191.8594 Q278.4063,191.5781 277.7813,191.5781 Q276.4375,191.5781 275.75,192.6563 Q275.0625,193.7188 275.0625,195.8125 Q275.0625,197.9063 275.75,198.9844 Q276.4375,200.0469 277.7813,200.0469 Q278.4063,200.0469 279,199.7813 Q279.5938,199.5 280.2188,198.9219 L280.2188,201.6406 Z "/><text fill="#000000" font-family="sans-serif" font-size="12" lengthAdjust="spacingAndGlyphs" textLength="23" x="297.75" y="200.1543">Day</text><line style="stroke: #A80036; stroke-width: 1.5;" x1="138" x2="448" y1="212" y2="212"/><text fill="#000000" font-family="sans-serif" font-size="11" lengthAdjust="spacingAndGlyphs" textLength="159" x="143" y="226.2104">day: str = Name of the day.</text><text fill="#000000" font-family="sans-serif" font-size="11" lengthAdjust="spacingAndGlyphs" textLength="153" x="143" y="239.0151">slots : Dict OR list of slots.</text><line style="stroke: #A80036; stroke-width: 1.5;" x1="138" x2="448" y1="245.6094" y2="245.6094"/><rect fill="#F24D5C" height="6" style="stroke: #C82930; stroke-width: 1.0;" width="6" x="145" y="253.6094"/><text fill="#000000" font-family="sans-serif" font-size="11" lengthAdjust="spacingAndGlyphs" textLength="286" x="157" y="259.8198">init_day() : Fills the day with empty ScheduleSlots.</text><!--MD5=[421a1f6ca188850077114c9aa4816d22]
class Hall_slot--><rect fill="#FEFECE" filter="url(#f3mcgvavyeu48)" height="163.2422" id="Hall_slot" style="stroke: #A80036; stroke-width: 1.5;" width="399" x="93.5" y="326"/><ellipse cx="262.75" cy="342" fill="#ADD1B2" rx="11" ry="11" style="stroke: #A80036; stroke-width: 1.0;"/><path d="M265.7188,347.6406 Q265.1406,347.9375 264.5,348.0781 Q263.8594,348.2344 263.1563,348.2344 Q260.6563,348.2344 259.3281,346.5938 Q258.0156,344.9375 258.0156,341.8125 Q258.0156,338.6875 259.3281,337.0313 Q260.6563,335.375 263.1563,335.375 Q263.8594,335.375 264.5,335.5313 Q265.1563,335.6875 265.7188,335.9844 L265.7188,338.7031 Q265.0938,338.125 264.5,337.8594 Q263.9063,337.5781 263.2813,337.5781 Q261.9375,337.5781 261.25,338.6563 Q260.5625,339.7188 260.5625,341.8125 Q260.5625,343.9063 261.25,344.9844 Q261.9375,346.0469 263.2813,346.0469 Q263.9063,346.0469 264.5,345.7813 Q265.0938,345.5 265.7188,344.9219 L265.7188,347.6406 Z "/><text fill="#000000" font-family="sans-serif" font-size="12" lengthAdjust="spacingAndGlyphs" textLength="52" x="283.25" y="346.1543">Hall_slot</text><line style="stroke: #A80036; stroke-width: 1.5;" x1="94.5" x2="491.5" y1="358" y2="358"/><text fill="#000000" font-family="sans-serif" font-size="11" lengthAdjust="spacingAndGlyphs" textLength="48" x="99.5" y="372.2104">day : str</text><text fill="#000000" font-family="sans-serif" font-size="11" lengthAdjust="spacingAndGlyphs" textLength="53" x="99.5" y="385.0151">time: str.</text><text fill="#000000" font-family="sans-serif" font-size="11" lengthAdjust="spacingAndGlyphs" textLength="157" x="99.5" y="397.8198">room: str = Name of room.</text><text fill="#000000" font-family="sans-serif" font-size="11" lengthAdjust="spacingAndGlyphs" textLength="288" x="99.5" y="410.6245">room_capacity : int = Max students inside a room.</text><text fill="#000000" font-family="sans-serif" font-size="11" lengthAdjust="spacingAndGlyphs" textLength="94" x="99.5" y="423.4292">activity : Activity.</text><line style="stroke: #A80036; stroke-width: 1.5;" x1="94.5" x2="491.5" y1="430.0234" y2="430.0234"/><text fill="#000000" font-family="sans-serif" font-size="11" lengthAdjust="spacingAndGlyphs" textLength="254" x="99.5" y="444.2339">is_empty() -&gt; bool. Check if slot is occupied.</text><text fill="#000000" font-family="sans-serif" font-size="11" lengthAdjust="spacingAndGlyphs" textLength="230" x="99.5" y="457.0386">fill() -&gt; Set an active activity for the slot.</text><text fill="#000000" font-family="sans-serif" font-size="11" lengthAdjust="spacingAndGlyphs" textLength="387" x="99.5" y="469.8433">check_capacity() -&gt; bool. Check if capacity of room is not exceeded.</text><text fill="#000000" font-family="sans-serif" font-size="11" lengthAdjust="spacingAndGlyphs" textLength="295" x="99.5" y="482.6479">as_dict() -&gt; Return a dict representation of the slot.</text><!--MD5=[c881b25adf3665c6568c9693d41a70f3]
class Activity--><rect fill="#FEFECE" filter="url(#f3mcgvavyeu48)" height="112.0234" id="Activity" style="stroke: #A80036; stroke-width: 1.5;" width="475" x="55.5" y="549"/><ellipse cx="267.25" cy="565" fill="#ADD1B2" rx="11" ry="11" style="stroke: #A80036; stroke-width: 1.0;"/><path d="M270.2188,570.6406 Q269.6406,570.9375 269,571.0781 Q268.3594,571.2344 267.6563,571.2344 Q265.1563,571.2344 263.8281,569.5938 Q262.5156,567.9375 262.5156,564.8125 Q262.5156,561.6875 263.8281,560.0313 Q265.1563,558.375 267.6563,558.375 Q268.3594,558.375 269,558.5313 Q269.6563,558.6875 270.2188,558.9844 L270.2188,561.7031 Q269.5938,561.125 269,560.8594 Q268.4063,560.5781 267.7813,560.5781 Q266.4375,560.5781 265.75,561.6563 Q265.0625,562.7188 265.0625,564.8125 Q265.0625,566.9063 265.75,567.9844 Q266.4375,569.0469 267.7813,569.0469 Q268.4063,569.0469 269,568.7813 Q269.5938,568.5 270.2188,567.9219 L270.2188,570.6406 Z "/><text fill="#000000" font-family="sans-serif" font-size="12" lengthAdjust="spacingAndGlyphs" textLength="43" x="287.75" y="569.1543">Activity</text><line style="stroke: #A80036; stroke-width: 1.5;" x1="56.5" x2="529.5" y1="581" y2="581"/><text fill="#000000" font-family="sans-serif" font-size="11" lengthAdjust="spacingAndGlyphs" textLength="338" x="61.5" y="595.2104">course: Course = The course which the activity belongs to.</text><text fill="#000000" font-family="sans-serif" font-size="11" lengthAdjust="spacingAndGlyphs" textLength="463" x="61.5" y="608.0151">category: str = The category of the activity. Options: lecture, tutorial or practical.</text><text fill="#000000" font-family="sans-serif" font-size="11" lengthAdjust="spacingAndGlyphs" textLength="72" x="61.5" y="620.8198">capacity: int.</text><text fill="#000000" font-family="sans-serif" font-size="11" lengthAdjust="spacingAndGlyphs" textLength="158" x="61.5" y="633.6245">students: dict[str, Student].</text><line style="stroke: #A80036; stroke-width: 1.5;" x1="56.5" x2="529.5" y1="640.2188" y2="640.2188"/><text fill="#000000" font-family="sans-serif" font-size="11" lengthAdjust="spacingAndGlyphs" textLength="259" x="61.5" y="654.4292">add_student(student) -&gt; Inplace modification.</text><!--MD5=[4066b0363c5a91ff3b6e03e0428953a9]
class Course--><rect fill="#FEFECE" filter="url(#f3mcgvavyeu48)" height="176.0469" id="Course" style="stroke: #A80036; stroke-width: 1.5;" width="272" x="6" y="721"/><ellipse cx="115.75" cy="737" fill="#ADD1B2" rx="11" ry="11" style="stroke: #A80036; stroke-width: 1.0;"/><path d="M118.7188,742.6406 Q118.1406,742.9375 117.5,743.0781 Q116.8594,743.2344 116.1563,743.2344 Q113.6563,743.2344 112.3281,741.5938 Q111.0156,739.9375 111.0156,736.8125 Q111.0156,733.6875 112.3281,732.0313 Q113.6563,730.375 116.1563,730.375 Q116.8594,730.375 117.5,730.5313 Q118.1563,730.6875 118.7188,730.9844 L118.7188,733.7031 Q118.0938,733.125 117.5,732.8594 Q116.9063,732.5781 116.2813,732.5781 Q114.9375,732.5781 114.25,733.6563 Q113.5625,734.7188 113.5625,736.8125 Q113.5625,738.9063 114.25,739.9844 Q114.9375,741.0469 116.2813,741.0469 Q116.9063,741.0469 117.5,740.7813 Q118.0938,740.5 118.7188,739.9219 L118.7188,742.6406 Z "/><text fill="#000000" font-family="sans-serif" font-size="12" lengthAdjust="spacingAndGlyphs" textLength="44" x="136.25" y="741.1543">Course</text><line style="stroke: #A80036; stroke-width: 1.5;" x1="7" x2="277" y1="753" y2="753"/><text fill="#000000" font-family="sans-serif" font-size="11" lengthAdjust="spacingAndGlyphs" textLength="60" x="12" y="767.2104">name: str.</text><text fill="#000000" font-family="sans-serif" font-size="11" lengthAdjust="spacingAndGlyphs" textLength="122" x="12" y="780.0151">lectures: list[Activity].</text><text fill="#000000" font-family="sans-serif" font-size="11" lengthAdjust="spacingAndGlyphs" textLength="123" x="12" y="792.8198">tutorials: list[Activity].</text><text fill="#000000" font-family="sans-serif" font-size="11" lengthAdjust="spacingAndGlyphs" textLength="131" x="12" y="805.6245">practicals: list[Activity].</text><text fill="#000000" font-family="sans-serif" font-size="11" lengthAdjust="spacingAndGlyphs" textLength="155" x="12" y="818.4292">max_tutorials_capacity: int.</text><text fill="#000000" font-family="sans-serif" font-size="11" lengthAdjust="spacingAndGlyphs" textLength="156" x="12" y="831.2339">max_practical_capacity: int.</text><text fill="#000000" font-family="sans-serif" font-size="11" lengthAdjust="spacingAndGlyphs" textLength="77" x="12" y="844.0386">expected: int.</text><line style="stroke: #A80036; stroke-width: 1.5;" x1="7" x2="277" y1="850.6328" y2="850.6328"/><text fill="#000000" font-family="sans-serif" font-size="11" lengthAdjust="spacingAndGlyphs" textLength="164" x="12" y="864.8433">number_of_activities() -&gt; int.</text><text fill="#000000" font-family="sans-serif" font-size="11" lengthAdjust="spacingAndGlyphs" textLength="158" x="12" y="877.6479">activities() -&gt; list(Activities).</text><text fill="#000000" font-family="sans-serif" font-size="11" lengthAdjust="spacingAndGlyphs" textLength="260" x="12" y="890.4526">add_student(Student) -&gt; inplace modification.</text><!--MD5=[d6181cb537bdc20c0a3007a98a56832d]
class Student--><rect fill="#FEFECE" filter="url(#f3mcgvavyeu48)" height="124.8281" id="Student" style="stroke: #A80036; stroke-width: 1.5;" width="263" x="313.5" y="746.5"/><ellipse cx="415.75" cy="762.5" fill="#ADD1B2" rx="11" ry="11" style="stroke: #A80036; stroke-width: 1.0;"/><path d="M418.7188,768.1406 Q418.1406,768.4375 417.5,768.5781 Q416.8594,768.7344 416.1563,768.7344 Q413.6563,768.7344 412.3281,767.0938 Q411.0156,765.4375 411.0156,762.3125 Q411.0156,759.1875 412.3281,757.5313 Q413.6563,755.875 416.1563,755.875 Q416.8594,755.875 417.5,756.0313 Q418.1563,756.1875 418.7188,756.4844 L418.7188,759.2031 Q418.0938,758.625 417.5,758.3594 Q416.9063,758.0781 416.2813,758.0781 Q414.9375,758.0781 414.25,759.1563 Q413.5625,760.2188 413.5625,762.3125 Q413.5625,764.4063 414.25,765.4844 Q414.9375,766.5469 416.2813,766.5469 Q416.9063,766.5469 417.5,766.2813 Q418.0938,766 418.7188,765.4219 L418.7188,768.1406 Z "/><text fill="#000000" font-family="sans-serif" font-size="12" lengthAdjust="spacingAndGlyphs" textLength="50" x="436.25" y="766.6543">Student</text><line style="stroke: #A80036; stroke-width: 1.5;" x1="314.5" x2="575.5" y1="778.5" y2="778.5"/><text fill="#000000" font-family="sans-serif" font-size="11" lengthAdjust="spacingAndGlyphs" textLength="200" x="319.5" y="792.7104">index: int = Index of student in file.</text><text fill="#000000" font-family="sans-serif" font-size="11" lengthAdjust="spacingAndGlyphs" textLength="89" x="319.5" y="805.5151">first_name: str.</text><text fill="#000000" font-family="sans-serif" font-size="11" lengthAdjust="spacingAndGlyphs" textLength="87" x="319.5" y="818.3198">last_name: str.</text><text fill="#000000" font-family="sans-serif" font-size="11" lengthAdjust="spacingAndGlyphs" textLength="119" x="319.5" y="831.1245">student_number: int.</text><text fill="#000000" font-family="sans-serif" font-size="11" lengthAdjust="spacingAndGlyphs" textLength="124" x="319.5" y="843.9292">courses: list[Course].</text><line style="stroke: #A80036; stroke-width: 1.5;" x1="314.5" x2="575.5" y1="850.5234" y2="850.5234"/><text fill="#000000" font-family="sans-serif" font-size="11" lengthAdjust="spacingAndGlyphs" textLength="251" x="319.5" y="864.7339">add_course(course) -&gt; inplace modification.</text><!--MD5=[72b8f627bfb9551a9a8543db331a8a66]
reverse link Schedule to Day--><path d="M293,125.45 C293,143.66 293,163.24 293,179.97 " fill="none" id="Schedule&lt;-Day" style="stroke: #A80036; stroke-width: 1.0;"/><polygon fill="#A80036" points="293,120.35,289,129.35,293,125.35,297,129.35,293,120.35" style="stroke: #A80036; stroke-width: 1.0;"/><!--MD5=[a8105eb28ba2004e52c25d1a3fdcad5c]
reverse link Day to Hall_slot--><path d="M293,271.39 C293,287.98 293,307.11 293,325.66 " fill="none" id="Day&lt;-Hall_slot" style="stroke: #A80036; stroke-width: 1.0;"/><polygon fill="#A80036" points="293,266.33,289,275.33,293,271.33,297,275.33,293,266.33" style="stroke: #A80036; stroke-width: 1.0;"/><!--MD5=[e14329b647be9fbd131b7e534b87e6fa]
reverse link Hall_slot to Activity--><path d="M293,494.35 C293,512.84 293,531.91 293,548.86 " fill="none" id="Hall_slot&lt;-Activity" style="stroke: #A80036; stroke-width: 1.0;"/><polygon fill="#A80036" points="293,489.15,289,498.15,293,494.15,297,498.15,293,489.15" style="stroke: #A80036; stroke-width: 1.0;"/><!--MD5=[0439d4a8301dc14766cd3e26135577fb]
link Activity to Course--><path d="M248.47,665.57 C236.5,681.58 223.28,699.27 210.33,716.59 " fill="none" id="Activity-Course" style="stroke: #A80036; stroke-width: 1.0;"/><polygon fill="#A80036" points="207.05,720.98,215.6307,716.1457,210.034,716.968,209.2116,711.3713,207.05,720.98" style="stroke: #A80036; stroke-width: 1.0;"/><polygon fill="#A80036" points="251.74,661.2,243.1482,666.0147,248.7468,665.2051,249.5564,670.8037,251.74,661.2" style="stroke: #A80036; stroke-width: 1.0;"/><!--MD5=[e2c9118b5b072af52559f7b5d499988b]
link Activity to Student--><path d="M337.59,665.26 C355.76,689.41 376.84,717.42 395.49,742.2 " fill="none" id="Activity-Student" style="stroke: #A80036; stroke-width: 1.0;"/><polygon fill="#A80036" points="398.7,746.47,396.5,736.87,395.7,742.47,390.1,741.67,398.7,746.47" style="stroke: #A80036; stroke-width: 1.0;"/><polygon fill="#A80036" points="334.53,661.2,336.73,670.8,337.53,665.2,343.13,666,334.53,661.2" style="stroke: #A80036; stroke-width: 1.0;"/><!--MD5=[74c98ce6e0011ec5da56b67bbaccc8a0]
link Course to Student--><path d="M283.34,809 C291.61,809 299.89,809 308.16,809 " fill="none" id="Course-Student" style="stroke: #A80036; stroke-width: 1.0;"/><polygon fill="#A80036" points="313.32,809,304.32,805,308.32,809,304.32,813,313.32,809" style="stroke: #A80036; stroke-width: 1.0;"/><polygon fill="#A80036" points="278.11,809,287.11,813,283.11,809,287.11,805,278.11,809" style="stroke: #A80036; stroke-width: 1.0;"/><!--MD5=[977ee430e6e94a929a2fff0269086046]
@startuml FirstDiagram

class Schedule{
    days: dict[str: Day]
    -init_schedule() -> dict[str: Day]
    day_schedule(day) -> list[slots] in day
    insert_activity(Day, Slot, Activity) -> bool. Modifies activity in place.
    as_list_of_dicts() -> dict representation of the Schedule.
}

class Day{
    day: str = Name of the day.
    slots : Dict OR list of slots.
    -init_day() : Fills the day with empty ScheduleSlots.
}

class Hall_slot{
    day : str
    time: str.
    room: str = Name of room.
    room_capacity : int = Max students inside a room.
    activity : Activity.
    is_empty() -> bool. Check if slot is occupied.
    fill() -> Set an active activity for the slot.
    check_capacity() -> bool. Check if capacity of room is not exceeded.
    as_dict() -> Return a dict representation of the slot.
}

class Activity{
    add_student(student) -> Inplace modification.
    course: Course = The course which the activity belongs to.
    category: str = The category of the activity. Options: lecture, tutorial or practical.
    capacity: int.
    students: dict[str, Student].
}

class Course{
    number_of_activities() -> int.
    activities() -> list(Activities).
    add_student(Student) -> inplace modification.
    name: str.
    lectures: list[Activity].
    tutorials: list[Activity].
    practicals: list[Activity].
    max_tutorials_capacity: int.
    max_practical_capacity: int.
    expected: int.
}

class Student{
    add_course(course) -> inplace modification.
    index: int = Index of student in file.
    first_name: str.
    last_name: str.
    student_number: int.
    courses: list[Course].
}

Day -up-> Schedule
Hall_slot -up-> Day
Activity -up-> Hall_slot
Activity <-down-> Course
Activity <-down-> Student
Course <-right-> Student


@enduml

PlantUML version 1.2020.02(Sun Mar 01 11:22:07 CET 2020)
(GPL source distribution)
Java Runtime: OpenJDK Runtime Environment
JVM: OpenJDK 64-Bit Server VM
Java Version: 11.0.19+7-post-Ubuntu-0ubuntu122.04.1
Operating System: Linux
Default Encoding: UTF-8
Language: en
Country: null
--></g></svg>